<svg xmlns="http://www.w3.org/2000/svg" viewBox="0 0 32 32" width="32" height="32">
  <defs>
    <linearGradient id="grad" x1="0%" y1="0%" x2="100%" y2="100%">
      <stop offset="0%" style="stop-color:#6366f1;stop-opacity:1" />
      <stop offset="100%" style="stop-color:#8b5cf6;stop-opacity:1" />
    </linearGradient>
  </defs>
  
  <!-- Background circle -->
  <circle cx="16" cy="16" r="15" fill="url(#grad)" stroke="#ffffff" stroke-width="1"/>
  
  <!-- QR Code pattern -->
  <!-- Top-left corner -->
  <rect x="5" y="5" width="8" height="8" fill="white" rx="1"/>
  <rect x="7" y="7" width="4" height="4" fill="url(#grad)"/>
  
  <!-- Top-right corner -->
  <rect x="19" y="5" width="8" height="8" fill="white" rx="1"/>
  <rect x="21" y="7" width="4" height="4" fill="url(#grad)"/>
  
  <!-- Bottom-left corner -->
  <rect x="5" y="19" width="8" height="8" fill="white" rx="1"/>
  <rect x="7" y="21" width="4" height="4" fill="url(#grad)"/>
  
  <!-- Center pattern -->
  <rect x="14" y="14" width="4" height="4" fill="white" rx="0.5"/>
  <rect x="15" y="15" width="2" height="2" fill="url(#grad)"/>
  
  <!-- Additional dots for QR pattern -->
  <rect x="9" y="15" width="2" height="2" fill="white"/>
  <rect x="15" y="9" width="2" height="2" fill="white"/>
  <rect x="21" y="15" width="2" height="2" fill="white"/>
  <rect x="15" y="21" width="2" height="2" fill="white"/>
</svg>
